<svg xmlns="http://www.w3.org/2000/svg" width="256" height="256" viewBox="0 0 256 256">
  <defs>
    <linearGradient id="icon-a" x1="15.396%" x2="84.902%" y1="14.245%" y2="83.872%">
      <stop offset="0%" stop-color="#43C6AC"/>
      <stop offset="37.216%" stop-color="#82DAAD"/>
      <stop offset="61.518%" stop-color="#A6E5AD"/>
      <stop offset="79.211%" stop-color="#C4EEAD"/>
      <stop offset="100%" stop-color="#F8FFAE"/>
    </linearGradient>
  </defs>
  <g fill="none" fill-rule="evenodd">
    <circle cx="128" cy="128" r="128" fill="url(#icon-a)"/>
    <path fill="#FFF" fill-rule="nonzero" d="M160,146.8 L160,152 C160,156.418278 156.418278,160 152,160 L136,160 C60.889274,160 9.19841104e-15,99.1107256 0,24 L0,8 C-5.41083001e-16,3.581722 3.581722,8.11624504e-16 8,0 L40,0 C44.418278,2.70541501e-16 48,3.581722 48,8 L48,40 C48,44.48 45.52,50.48 42.4,53.6 L25.28,70.72 C37.44,99.52 60.48,122.56 89.28,134.72 L106.24,117.76 C109.44,114.56 115.44,112.08 119.84,112.08 L152,112.08 C156.387004,112.123872 159.920219,115.692776 159.92,120.08 L159.92,146.88 L160,146.8 Z" transform="translate(48 48)"/>
  </g>
</svg>
